<svg xmlns="http://www.w3.org/2000/svg" width="24" height="24" viewBox="0 0 24 24">
    <path d="M5 5.08478H19C19.8284 5.08478 20.5 5.75635 20.5 6.58478V15.7615C20.4998 16.5898 19.8283 17.2615 19 17.2615H8.67676C8.12795 17.2616 7.59416 17.4418 7.1582 17.7752L4.30371 19.9588C3.97475 20.2101 3.50011 19.9753 3.5 19.5613V6.58478C3.5 5.75635 4.17157 5.08478 5 5.08478Z" fill="black" stroke="black"/>
    <path d="M11.835 13.5203C11.9982 13.5204 12.1414 13.5769 12.2588 13.6883H12.2578C12.3784 13.8003 12.4413 13.9399 12.4414 14.1024C12.4414 14.2084 12.4125 14.3077 12.3555 14.3973C12.3019 14.4851 12.2286 14.5558 12.1377 14.6082H12.1367C12.0455 14.6596 11.9442 14.6843 11.835 14.6844C11.6714 14.6844 11.5268 14.6284 11.4072 14.5174L11.4053 14.5154C11.2886 14.4017 11.2275 14.2622 11.2275 14.1024C11.2276 13.9407 11.2882 13.8005 11.4062 13.6883H11.4072C11.5268 13.5773 11.6714 13.5203 11.835 13.5203ZM12.0283 7.48517C12.4309 7.48519 12.7896 7.56418 13.1016 7.72638C13.4123 7.88584 13.6582 8.10675 13.835 8.38849L13.8965 8.49591C14.0323 8.75044 14.0996 9.03577 14.0996 9.34943C14.0996 9.58592 14.061 9.80426 13.9805 10.0027C13.9003 10.2004 13.779 10.3803 13.6211 10.5447L13.6221 10.5457C13.4673 10.7092 13.2743 10.8609 13.0459 11.0027C12.8392 11.1337 12.6795 11.2627 12.5625 11.3865C12.4483 11.5074 12.3667 11.6447 12.3174 11.7996C12.2673 11.9548 12.238 12.1512 12.2334 12.3904V12.6697H11.3965V12.3885L11.4053 12.1297C11.422 11.8833 11.4616 11.6705 11.5254 11.494C11.6098 11.2604 11.7351 11.0612 11.9014 10.8983H11.9023C12.0661 10.738 12.2667 10.5858 12.5039 10.4422L12.7344 10.283C12.8039 10.2292 12.8666 10.1747 12.9219 10.119C13.0335 10.0066 13.1163 9.88486 13.1719 9.7547L13.1729 9.75372C13.2302 9.62232 13.2588 9.4787 13.2588 9.32208C13.2588 9.09864 13.2042 8.90742 13.0967 8.74493L13.0957 8.74396C12.9887 8.57917 12.8433 8.45173 12.6572 8.36115L12.6562 8.36017C12.4695 8.2673 12.2607 8.22054 12.0283 8.22052C11.808 8.22052 11.6033 8.26675 11.4131 8.35822C11.2277 8.44635 11.0755 8.57731 10.9561 8.75275L10.9551 8.75177C10.8409 8.92066 10.7768 9.13421 10.7656 9.3963L10.7617 9.49298H9.89648L9.90039 9.38947C9.91264 9.00508 10.0135 8.66731 10.2061 8.3797C10.3969 8.0946 10.6519 7.87427 10.9697 7.71954L11.0908 7.66388C11.3767 7.5439 11.6898 7.48517 12.0283 7.48517Z" fill="white" stroke="white" stroke-width="0.2"/>
</svg>