<svg xmlns="http://www.w3.org/2000/svg" width="24" height="24" viewBox="0 0 24 24" fill="none">
    <path d="M5 5.08479H19C19.8284 5.08479 20.5 5.75637 20.5 6.58479V15.7616C20.4998 16.5898 19.8283 17.2616 19 17.2616H8.67676C8.12794 17.2616 7.59416 17.4418 7.1582 17.7752L4.30371 19.9588C3.97475 20.2101 3.50011 19.9754 3.5 19.5614V6.58479C3.5 5.75637 4.17157 5.08479 5 5.08479Z" stroke="black"/>
    <path d="M11.835 13.5203C11.9982 13.5204 12.1414 13.5769 12.2588 13.6883H12.2578C12.3784 13.8003 12.4413 13.9399 12.4414 14.1024C12.4414 14.2085 12.4125 14.3077 12.3555 14.3973C12.3019 14.4851 12.2286 14.5559 12.1377 14.6082H12.1367C12.0455 14.6596 11.9442 14.6843 11.835 14.6844C11.6714 14.6844 11.5268 14.6284 11.4072 14.5174L11.4053 14.5155C11.2886 14.4017 11.2275 14.2622 11.2275 14.1024C11.2276 13.9407 11.2882 13.8005 11.4062 13.6883H11.4072C11.5268 13.5773 11.6714 13.5203 11.835 13.5203ZM12.0283 7.48518C12.4309 7.4852 12.7896 7.5642 13.1016 7.72639C13.4123 7.88585 13.6582 8.10676 13.835 8.3885L13.8965 8.49593C14.0323 8.75046 14.0996 9.03578 14.0996 9.34944C14.0996 9.58593 14.061 9.80428 13.9805 10.0028C13.9003 10.2004 13.779 10.3803 13.6211 10.5448L13.6221 10.5457C13.4673 10.7092 13.2743 10.8609 13.0459 11.0028C12.8392 11.1338 12.6795 11.2627 12.5625 11.3866C12.4483 11.5075 12.3667 11.6447 12.3174 11.7996C12.2673 11.9548 12.238 12.1513 12.2334 12.3905C12.2325 12.5447 12.1076 12.6697 11.9531 12.6698H11.6777C11.5227 12.6698 11.3965 12.5436 11.3965 12.3885L11.4053 12.1297C11.422 11.8833 11.4616 11.6706 11.5254 11.494C11.6098 11.2604 11.7351 11.0613 11.9014 10.8983H11.9023C12.0661 10.738 12.2667 10.5858 12.5039 10.4422L12.7344 10.283C12.8039 10.2292 12.8666 10.1747 12.9219 10.119C13.0335 10.0066 13.1163 9.88488 13.1719 9.75471L13.1729 9.75374C13.2302 9.62233 13.2588 9.47871 13.2588 9.3221C13.2588 9.09865 13.2042 8.90744 13.0967 8.74495L13.0957 8.74397C12.9887 8.57919 12.8433 8.45174 12.6572 8.36116L12.6562 8.36018C12.4695 8.26731 12.2607 8.22056 12.0283 8.22054C11.808 8.22054 11.6033 8.26677 11.4131 8.35823C11.2277 8.44637 11.0755 8.57733 10.9561 8.75276L10.9551 8.75179C10.8874 8.8519 10.8378 8.96789 10.8057 9.09944C10.7552 9.30562 10.5816 9.493 10.3447 9.493C10.1055 9.49279 9.8893 9.28865 9.94043 9.03011C9.98783 8.79071 10.0762 8.57366 10.2061 8.37971C10.3969 8.09462 10.6519 7.87429 10.9697 7.71956L11.0908 7.66389C11.3767 7.54391 11.6898 7.48518 12.0283 7.48518Z" fill="black" stroke="#181818" stroke-width="0.2"/>
</svg>