<svg xmlns="http://www.w3.org/2000/svg" width="24" height="24" viewBox="0 0 24 24" fill="none">
    <path d="M11.7549 4.29669C11.9071 4.21108 12.0929 4.21108 12.2451 4.29669L19.2451 8.23419C19.4025 8.32277 19.5 8.48916 19.5 8.66974V18.5848C19.5 18.8609 19.2761 19.0848 19 19.0848H15C14.7239 19.0848 14.5 18.8609 14.5 18.5848V15.5848C14.5 14.2041 13.3807 13.0848 12 13.0848C10.6193 13.0848 9.5 14.2041 9.5 15.5848V18.5848C9.5 18.8609 9.27614 19.0848 9 19.0848H5C4.72386 19.0848 4.5 18.8609 4.5 18.5848V8.66974C4.5 8.48916 4.59753 8.32277 4.75488 8.23419L11.7549 4.29669Z" stroke="black"/>
</svg>