<svg xmlns="http://www.w3.org/2000/svg" width="24" height="24" viewBox="0 0 24 24">
    <path d="M16.5547 3.53204C17.3829 3.53226 18.0546 4.20385 18.0547 5.03204V7.13068H19.8711C21.3204 7.1308 22.5429 8.25021 22.543 9.68732C22.543 11.1245 21.3204 12.2438 19.8711 12.244H18.04C17.8642 15.0665 15.9575 17.2241 13.1826 17.658C13.3503 17.9531 13.5686 18.2891 13.8447 18.6238C14.6295 19.5752 15.8571 20.4988 17.7002 20.4988V21.4988H6.84277V20.4988C8.68572 20.4988 9.91348 19.5752 10.6982 18.6238C10.9638 18.3019 11.1748 17.978 11.3398 17.6912C9.96997 17.5272 8.8283 16.9402 7.99512 16.032C7.09553 15.0512 6.58459 13.7287 6.50195 12.244H4.6709C3.22165 12.2437 2.00001 11.1244 2 9.68732C2.00005 8.25028 3.22167 7.13091 4.6709 7.13068H6.48828V5.03204C6.4884 4.20379 7.16002 3.53216 7.98828 3.53204H16.5547ZM4.6709 8.13068C3.72211 8.1309 3.00005 8.85303 3 9.68732C3.00001 10.5216 3.72208 11.2437 4.6709 11.244H6.48828V8.13068H4.6709ZM18.0547 11.244H19.8711C20.82 11.2438 21.543 10.5217 21.543 9.68732C21.5429 8.85297 20.82 8.1308 19.8711 8.13068H18.0547V11.244Z" fill="black"/>
</svg>