<svg width="24" height="24" viewBox="0 0 24 24" fill="none"
    xmlns="http://www.w3.org/2000/svg">
    <path d="M16.5547 3.53206C17.3829 3.53228 18.0546 4.20387 18.0547 5.03206V7.13069H19.8711C21.3204 7.13082 22.5429 8.25023 22.543 9.68733C22.543 11.1245 21.3204 12.2438 19.8711 12.244H18.0391C17.8633 15.0664 15.9573 17.2231 13.1826 17.6571C13.3503 17.9523 13.5684 18.2889 13.8447 18.6239C14.6295 19.5752 15.8571 20.4989 17.7002 20.4989V21.4989H6.84277V20.4989C8.68572 20.4988 9.91348 19.5752 10.6982 18.6239C10.9637 18.302 11.1739 17.9779 11.3389 17.6912C9.96933 17.5273 8.82819 16.9401 7.99512 16.0321C7.09552 15.0513 6.58361 13.7287 6.50098 12.244H4.6709C3.22165 12.2437 2.00001 11.1244 2 9.68733C2.00005 8.2503 3.22167 7.13092 4.6709 7.13069H6.48828V5.03206C6.4884 4.2038 7.16002 3.53217 7.98828 3.53206H16.5547ZM12.2705 18.0789C12.0743 18.4329 11.8113 18.8465 11.4697 19.2606C11.1132 19.6927 10.6673 20.1275 10.125 20.4989H14.418C13.8756 20.1276 13.4298 19.6928 13.0732 19.2606C12.7314 18.8462 12.4668 18.433 12.2705 18.0789ZM7.98828 4.53206C7.7123 4.53217 7.4884 4.75609 7.48828 5.03206V11.8143C7.48836 13.2663 7.94342 14.496 8.73242 15.3563C9.45516 16.1439 10.4872 16.6529 11.7959 16.7283H12.4707C15.205 16.5756 17.0545 14.5467 17.0547 11.8153V5.03206C17.0546 4.75615 16.8306 4.53228 16.5547 4.53206H7.98828ZM4.6709 8.13069C3.72211 8.13092 3.00005 8.85304 3 9.68733C3.00001 10.5217 3.72208 11.2437 4.6709 11.244H6.48828V8.13069H4.6709ZM18.0547 11.244H19.8711C20.82 11.2438 21.543 10.5217 21.543 9.68733C21.5429 8.85299 20.82 8.13082 19.8711 8.13069H18.0547V11.244Z" fill="black"/>
</svg>
