<svg xmlns="http://www.w3.org/2000/svg" width="24" height="24" viewBox="0 0 24 24">
    <path d="M20.2554 15L18.3982 13.7C18.7043 12.62 18.7247 11.45 18.3982 10.28L20.2554 9L18.7758 6.5L16.7043 7.42C15.8981 6.62 14.8777 6 13.6837 5.71L13.4796 3.5H10.5204L10.3163 5.71C9.12234 6 8.10189 6.62 7.29574 7.42L5.22423 6.5L3.74459 9L5.6018 10.28C5.27526 11.45 5.29567 12.62 5.6018 13.7L3.74459 15L5.22423 17.5L7.29574 16.57C8.10189 17.36 9.12234 17.96 10.3163 18.27L10.5204 20.5H13.4796L13.6837 18.27C14.8777 17.96 15.8981 17.36 16.7043 16.57L18.7758 17.5L20.2554 15ZM14.0409 2.5C14.3164 2.5 14.5511 2.7 14.5511 2.96L14.7348 5C15.5103 5.28 16.2042 5.69 16.8267 6.18L18.7145 5.31C18.9492 5.19 19.2452 5.27 19.388 5.5L21.4289 9C21.5718 9.21 21.4902 9.5 21.2657 9.65L19.5615 10.82C19.6942 11.62 19.684 12.41 19.5615 13.18L21.2657 14.35C21.4902 14.5 21.5718 14.79 21.4289 15L19.388 18.5C19.2452 18.71 18.9492 18.79 18.7145 18.67L16.8267 17.81C16.2042 18.3 15.5103 18.7 14.7348 19L14.5511 21C14.5511 21.29 14.3164 21.5 14.0409 21.5H9.95911C9.82379 21.5 9.69401 21.4473 9.59832 21.3536C9.50264 21.2598 9.44888 21.1326 9.44888 21L9.2652 19C8.48966 18.7 7.79576 18.3 7.17329 17.81L5.28546 18.67C5.05076 18.79 4.75483 18.71 4.61197 18.5L2.57107 15C2.42821 14.79 2.50985 14.5 2.73434 14.35L4.43849 13.18C4.31604 12.41 4.30583 11.62 4.43849 10.82L2.73434 9.65C2.50985 9.5 2.42821 9.21 2.57107 9L4.61197 5.5C4.75483 5.27 5.05076 5.19 5.28546 5.31L7.17329 6.18C7.79576 5.69 8.48966 5.28 9.2652 5L9.44888 2.96C9.44888 2.7 9.68359 2.5 9.95911 2.5H14.0409ZM12 8.5C12.9472 8.5 13.8557 8.86875 14.5255 9.52513C15.1953 10.1815 15.5716 11.0717 15.5716 12C15.5716 12.9283 15.1953 13.8185 14.5255 14.4749C13.8557 15.1313 12.9472 15.5 12 15.5C11.0528 15.5 10.1443 15.1313 9.47452 14.4749C8.80473 13.8185 8.42844 12.9283 8.42844 12C8.42844 11.0717 8.80473 10.1815 9.47452 9.52513C10.1443 8.86875 11.0528 8.5 12 8.5ZM12 9.5C11.3234 9.5 10.6745 9.76339 10.1961 10.2322C9.71766 10.7011 9.44888 11.337 9.44888 12C9.44888 12.663 9.71766 13.2989 10.1961 13.7678C10.6745 14.2366 11.3234 14.5 12 14.5C12.6766 14.5 13.3255 14.2366 13.8039 13.7678C14.2823 13.2989 14.5511 12.663 14.5511 12C14.5511 11.337 14.2823 10.7011 13.8039 10.2322C13.3255 9.76339 12.6766 9.5 12 9.5Z" fill="black"/>
    <path d="M12.002 15.4098C11.1432 15.4098 10.3195 15.0595 9.71217 14.4359C9.10486 13.8124 8.76368 12.9666 8.76368 12.0848C8.76368 11.2029 9.10486 10.3572 9.71217 9.73366C10.3195 9.11011 11.1432 8.75979 12.002 8.75979C12.8609 8.75979 13.6846 9.11011 14.2919 9.73366C14.8992 10.3572 15.2404 11.2029 15.2404 12.0848C15.2404 12.9666 14.8992 13.8124 14.2919 14.4359C13.6846 15.0595 12.8609 15.4098 12.002 15.4098ZM18.8766 13.0063C18.9136 12.7023 18.9414 12.3983 18.9414 12.0848C18.9414 11.7713 18.9136 11.4578 18.8766 11.1348L20.8289 9.58629C21.0047 9.44379 21.051 9.18729 20.9399 8.97829L19.0894 5.69129C18.9784 5.48229 18.7286 5.39679 18.525 5.48229L16.2212 6.43229C15.74 6.06179 15.2404 5.73879 14.6575 5.50129L14.3152 2.98379C14.2964 2.8719 14.2396 2.77045 14.1549 2.69742C14.0702 2.62439 13.9631 2.58449 13.8525 2.58479H10.1515C9.92024 2.58479 9.72593 2.75579 9.68892 2.98379L9.34658 5.50129C8.76368 5.73879 8.26404 6.06179 7.78291 6.43229L5.47905 5.48229C5.27549 5.39679 5.02567 5.48229 4.91464 5.69129L3.06415 8.97829C2.94387 9.18729 2.99938 9.44379 3.17518 9.58629L5.12745 11.1348C5.09044 11.4578 5.06268 11.7713 5.06268 12.0848C5.06268 12.3983 5.09044 12.7023 5.12745 13.0063L3.17518 14.5833C2.99938 14.7258 2.94387 14.9823 3.06415 15.1913L4.91464 18.4783C5.02567 18.6873 5.27549 18.7633 5.47905 18.6873L7.78291 17.7278C8.26404 18.1078 8.76368 18.4308 9.34658 18.6683L9.68892 21.1858C9.72593 21.4138 9.92024 21.5848 10.1515 21.5848H13.8525C14.0839 21.5848 14.2782 21.4138 14.3152 21.1858L14.6575 18.6683C15.2404 18.4213 15.74 18.1078 16.2212 17.7278L18.525 18.6873C18.7286 18.7633 18.9784 18.6873 19.0894 18.4783L20.9399 15.1913C21.051 14.9823 21.0047 14.7258 20.8289 14.5833L18.8766 13.0063Z" fill="black"/>
</svg>