<svg width="24" height="24" viewBox="0 0 24 24"
    xmlns="http://www.w3.org/2000/svg">
    <path d="M20.2554 15L18.3982 13.7C18.7043 12.62 18.7247 11.45 18.3982 10.28L20.2554 9L18.7758 6.5L16.7043 7.42C15.8981 6.62 14.8777 6 13.6837 5.71L13.4796 3.5H10.5204L10.3163 5.71C9.12234 6 8.10189 6.62 7.29574 7.42L5.22423 6.5L3.74459 9L5.6018 10.28C5.27526 11.45 5.29567 12.62 5.6018 13.7L3.74459 15L5.22423 17.5L7.29574 16.57C8.10189 17.36 9.12234 17.96 10.3163 18.27L10.5204 20.5H13.4796L13.6837 18.27C14.8777 17.96 15.8981 17.36 16.7043 16.57L18.7758 17.5L20.2554 15ZM14.0409 2.5C14.3164 2.5 14.5511 2.7 14.5511 2.96L14.7348 5C15.5103 5.28 16.2042 5.69 16.8267 6.18L18.7145 5.31C18.9492 5.19 19.2452 5.27 19.388 5.5L21.4289 9C21.5718 9.21 21.4902 9.5 21.2657 9.65L19.5615 10.82C19.6942 11.62 19.684 12.41 19.5615 13.18L21.2657 14.35C21.4902 14.5 21.5718 14.79 21.4289 15L19.388 18.5C19.2452 18.71 18.9492 18.79 18.7145 18.67L16.8267 17.81C16.2042 18.3 15.5103 18.7 14.7348 19L14.5511 21C14.5511 21.29 14.3164 21.5 14.0409 21.5H9.95911C9.82379 21.5 9.69401 21.4473 9.59832 21.3536C9.50264 21.2598 9.44888 21.1326 9.44888 21L9.2652 19C8.48966 18.7 7.79576 18.3 7.17329 17.81L5.28546 18.67C5.05076 18.79 4.75483 18.71 4.61197 18.5L2.57107 15C2.42821 14.79 2.50985 14.5 2.73434 14.35L4.43849 13.18C4.31604 12.41 4.30583 11.62 4.43849 10.82L2.73434 9.65C2.50985 9.5 2.42821 9.21 2.57107 9L4.61197 5.5C4.75483 5.27 5.05076 5.19 5.28546 5.31L7.17329 6.18C7.79576 5.69 8.48966 5.28 9.2652 5L9.44888 2.96C9.44888 2.7 9.68359 2.5 9.95911 2.5H14.0409ZM12 8.5C12.9472 8.5 13.8557 8.86875 14.5255 9.52513C15.1953 10.1815 15.5716 11.0717 15.5716 12C15.5716 12.9283 15.1953 13.8185 14.5255 14.4749C13.8557 15.1313 12.9472 15.5 12 15.5C11.0528 15.5 10.1443 15.1313 9.47452 14.4749C8.80473 13.8185 8.42844 12.9283 8.42844 12C8.42844 11.0717 8.80473 10.1815 9.47452 9.52513C10.1443 8.86875 11.0528 8.5 12 8.5ZM12 9.5C11.3234 9.5 10.6745 9.76339 10.1961 10.2322C9.71766 10.7011 9.44888 11.337 9.44888 12C9.44888 12.663 9.71766 13.2989 10.1961 13.7678C10.6745 14.2366 11.3234 14.5 12 14.5C12.6766 14.5 13.3255 14.2366 13.8039 13.7678C14.2823 13.2989 14.5511 12.663 14.5511 12C14.5511 11.337 14.2823 10.7011 13.8039 10.2322C13.3255 9.76339 12.6766 9.5 12 9.5Z" fill="black"/>
</svg>
