<svg width="16" height="16" viewBox="0 0 16 16" fill="none" xmlns="http://www.w3.org/2000/svg">
<circle cx="8" cy="8" r="8" fill="black"/>
<path d="M7.61914 5.1543C7.61913 5.60307 7.58783 6.03999 7.5293 6.45996L7.47559 6.7998C7.4451 6.97023 7.40861 7.13712 7.36914 7.30078C7.33063 7.46065 7.2898 7.61783 7.24316 7.77051C7.12317 8.16295 6.97517 8.52954 6.80664 8.86621C6.77308 8.93324 6.74039 8.99992 6.70508 9.06445C6.70257 9.06904 6.69978 9.07355 6.69727 9.07812C6.69621 9.08004 6.69539 9.08207 6.69434 9.08398H6.69824C6.65353 9.16523 6.60696 9.24419 6.55957 9.32129L6.41309 9.54688C6.18602 9.87743 5.93234 10.1619 5.65918 10.3916H5.65527C5.51093 10.5126 5.36091 10.619 5.20605 10.708L5.06348 10.7842C4.72718 10.9521 4.37013 11.043 4 11.043V9.07812C4.03045 9.07812 4.06064 9.07506 4.09082 9.07324H4C4.43938 9.07324 4.85123 8.88261 5.20605 8.54883V8.55273C5.37258 8.39612 5.52675 8.20768 5.66504 7.99316L5.79883 7.76953L5.7998 7.76758H5.79883C5.95458 7.48453 6.08517 7.16438 6.18555 6.81641L6.27539 6.45996L6.27637 6.45801H6.27539C6.36432 6.04896 6.41307 5.60891 6.41309 5.15039V4.5H7.61914V5.1543Z" fill="#CCCFD1"/>
<path d="M8.38086 5.1543C8.38087 5.60307 8.41217 6.03999 8.4707 6.45996L8.52441 6.7998C8.5549 6.97023 8.59139 7.13712 8.63086 7.30078C8.66937 7.46065 8.7102 7.61783 8.75684 7.77051C8.87683 8.16295 9.02483 8.52954 9.19336 8.86621C9.22692 8.93324 9.25961 8.99992 9.29492 9.06445C9.29743 9.06904 9.30022 9.07355 9.30273 9.07812C9.30379 9.08004 9.30461 9.08207 9.30566 9.08398H9.30176C9.34647 9.16523 9.39304 9.24419 9.44043 9.32129L9.58691 9.54688C9.81398 9.87743 10.0677 10.1619 10.3408 10.3916H10.3447C10.4891 10.5126 10.6391 10.619 10.7939 10.708L10.9365 10.7842C11.2728 10.9521 11.6299 11.043 12 11.043V9.07812C11.9695 9.07812 11.9394 9.07506 11.9092 9.07324H12C11.5606 9.07324 11.1488 8.88261 10.7939 8.54883V8.55273C10.6274 8.39612 10.4732 8.20768 10.335 7.99316L10.2012 7.76953L10.2002 7.76758H10.2012C10.0454 7.48453 9.91483 7.16438 9.81445 6.81641L9.72461 6.45996L9.72363 6.45801H9.72461C9.63568 6.04896 9.58693 5.60891 9.58691 5.15039V4.5H8.38086V5.1543Z" fill="#CCCFD1"/>
</svg>
