<svg viewBox="0 0 24 24" fill="none"
    xmlns="http://www.w3.org/2000/svg">
    <path d="M10.8584 4.80957L10.8535 5.27441C10.8449 5.73785 10.824 6.19646 10.79 6.64941C10.7448 7.25313 10.6769 7.84681 10.5889 8.42871C10.445 9.38044 10.2457 10.3012 9.99609 11.1816C9.91286 11.4752 9.82368 11.7644 9.72949 12.0488C9.67491 12.2135 9.61869 12.3766 9.56055 12.5381C9.38608 13.0225 9.19539 13.492 8.99023 13.9453C8.78502 14.3987 8.5649 14.8357 8.33105 15.2549C8.25312 15.3946 8.17373 15.5323 8.09277 15.668C8.02561 15.7805 7.95787 15.8922 7.88867 16.002C7.75025 16.2214 7.60727 16.4348 7.46094 16.6426C7.38777 16.7465 7.31434 16.8494 7.23926 16.9502C6.55806 17.8648 5.79897 18.6526 4.97949 19.2881C4.76121 19.4574 4.5382 19.6154 4.31152 19.7627C4.19793 19.8365 4.08334 19.9075 3.96777 19.9756C3.85254 20.0435 3.73624 20.1088 3.61914 20.1709C3.33629 20.3208 3.04793 20.4534 2.75488 20.5684C2.46162 20.6834 2.1637 20.781 1.86133 20.8594C1.25659 21.0161 0.634609 21.0977 0 21.0977V15.668C0.16476 15.668 0.32822 15.6598 0.490234 15.6436C0.571336 15.6354 0.652074 15.6254 0.732422 15.6133C0.892866 15.5891 1.05181 15.5572 1.20898 15.5176C1.60222 15.4184 1.98452 15.2713 2.35352 15.0811C2.50123 15.0049 2.64682 14.9219 2.79004 14.832C3.07611 14.6526 3.35309 14.4467 3.61914 14.2158C3.7025 14.1435 3.78499 14.0683 3.86621 13.9912C4.35333 13.5288 4.80104 12.9816 5.2002 12.3633C5.26662 12.2604 5.33182 12.1556 5.39551 12.0488C5.55126 11.7878 5.69837 11.5153 5.83691 11.2324C6.25273 10.3836 6.58871 9.44052 6.82715 8.42871C6.86044 8.28747 6.89144 8.14482 6.9209 8.00098C6.97994 7.7126 7.03114 7.41913 7.07422 7.12109C7.1388 6.67432 7.18525 6.21736 7.21191 5.75195C7.22845 5.46337 7.23709 5.17156 7.23828 4.87695V3H10.8584V4.80957Z" fill="currentColor"/>
    <path d="M13.1416 4.80957L13.1465 5.27441C13.1551 5.73785 13.176 6.19646 13.21 6.64941C13.2552 7.25313 13.3231 7.84681 13.4111 8.42871C13.555 9.38044 13.7543 10.3012 14.0039 11.1816C14.0871 11.4752 14.1763 11.7644 14.2705 12.0488C14.3251 12.2135 14.3813 12.3766 14.4395 12.5381C14.6139 13.0225 14.8046 13.492 15.0098 13.9453C15.215 14.3987 15.4351 14.8357 15.6689 15.2549C15.7469 15.3946 15.8263 15.5323 15.9072 15.668C15.9744 15.7805 16.0421 15.8922 16.1113 16.002C16.2498 16.2214 16.3927 16.4348 16.5391 16.6426C16.6122 16.7465 16.6857 16.8494 16.7607 16.9502C17.1013 17.4075 17.4616 17.833 17.8389 18.2236C17.9331 18.3212 18.0286 18.4166 18.125 18.5098C18.3178 18.6962 18.5149 18.8738 18.7158 19.042C18.8165 19.1263 18.9179 19.2085 19.0205 19.2881C19.2388 19.4574 19.4618 19.6154 19.6885 19.7627C19.8021 19.8365 19.9167 19.9075 20.0322 19.9756C20.1475 20.0435 20.2638 20.1088 20.3809 20.1709C20.6637 20.3208 20.9521 20.4534 21.2451 20.5684C21.5384 20.6834 21.8363 20.781 22.1387 20.8594C22.6678 20.9965 23.2102 21.076 23.7627 21.0938C23.8416 21.0963 23.9207 21.0977 24 21.0977V15.668C23.8352 15.668 23.6718 15.6598 23.5098 15.6436C23.4287 15.6354 23.3479 15.6254 23.2676 15.6133C23.1071 15.5891 22.9482 15.5572 22.791 15.5176C22.3978 15.4184 22.0155 15.2713 21.6465 15.0811C21.3512 14.9288 21.0647 14.7488 20.7881 14.543C20.6499 14.4401 20.5139 14.3313 20.3809 14.2158C20.2975 14.1435 20.215 14.0683 20.1338 13.9912C19.647 13.5291 19.1997 12.9821 18.8008 12.3643L18.6045 12.0488C17.9813 11.0045 17.4907 9.77755 17.1729 8.42871C17.1396 8.28748 17.1086 8.14482 17.0791 8.00098C17.0201 7.7126 16.9689 7.41913 16.9258 7.12109C16.8612 6.67433 16.8147 6.21736 16.7881 5.75195C16.7716 5.46337 16.7629 5.17156 16.7617 4.87695V3H13.1416V4.80957Z" fill="currentColor"/>
</svg>
