<svg viewBox="0 0 250 47" fill="none"
    xmlns="http://www.w3.org/2000/svg">
    <path d="M225.691 37.6896V11.1025H232.351V14.1484C233.848 11.722 236.894 10.3281 240.353 10.3281C245.877 10.3281 250.007 13.4773 250.007 20.8597V37.6896H242.986V22.3569C242.986 18.7947 241.282 16.7813 238.081 16.7813C234.674 16.7813 232.661 19.1045 232.661 22.6666V37.6896H225.691Z" fill="currentColor"/>
    <path d="M214.013 37.6866V11.0995H220.983V37.6866H214.013ZM217.472 8.36332C215.097 8.36332 213.342 6.55643 213.342 4.18166C213.342 1.80689 215.097 0 217.472 0C219.847 0 221.654 1.80689 221.654 4.18166C221.654 6.55643 219.847 8.36332 217.472 8.36332Z" fill="currentColor"/>
    <path d="M202.333 37.685V1.28906H209.303V37.685H202.333Z" fill="currentColor"/>
    <path d="M171.646 46.2078V11.1025H178.306V14.3549C179.958 11.6188 183.417 10.3281 186.515 10.3281C194.414 10.3281 199.008 16.2134 199.008 24.4219C199.008 32.5787 194.259 38.464 186.618 38.464C183.572 38.464 180.423 37.3282 178.616 34.7986V46.2078H171.646ZM185.121 32.1657C189.199 32.1657 191.936 29.3779 191.936 24.3702C191.936 19.3626 189.199 16.6264 185.121 16.6264C181.249 16.6264 178.254 19.4142 178.254 24.3702C178.254 29.4295 181.249 32.1657 185.121 32.1657Z" fill="currentColor"/>
    <path d="M127.194 37.6896V11.1025H133.854V14.1484C135.094 11.8253 138.088 10.3281 141.599 10.3281C145.264 10.3281 148.001 11.7736 149.601 14.4065C151.357 11.722 154.145 10.3281 157.655 10.3281C163.799 10.3281 167.207 14.0452 167.207 20.6016V37.6896H160.237V21.9955C160.237 18.5882 158.688 16.7813 155.693 16.7813C152.596 16.7813 150.685 18.8979 150.685 22.4601V37.6896H143.716V22.1504C143.716 18.6398 142.167 16.7813 139.224 16.7813C136.074 16.7813 134.164 18.9496 134.164 22.5117V37.6896H127.194Z" fill="currentColor"/>
    <path d="M107.437 38.464C101.861 38.464 97.9888 35.3148 97.9888 30.3072C97.9888 25.506 101.293 22.8731 106.249 22.0471L112.496 20.963C114.2 20.6532 115.077 20.0337 115.077 18.6398C115.077 16.8846 113.632 15.7488 110.947 15.7488C108.263 15.7488 106.094 16.9878 105.836 19.4142H98.7632C99.1246 13.9419 104.236 10.3281 110.896 10.3281C118.33 10.3281 122.099 13.9419 122.099 19.0012V30.5137C122.099 31.8043 122.718 32.1657 123.544 32.1657C123.957 32.1657 124.319 32.1141 124.732 32.0108V37.4315C123.648 37.8961 122.254 38.2059 120.602 38.2059C118.278 38.2059 116.471 37.3799 115.542 35.3148C113.787 36.9669 111.309 38.464 107.437 38.464ZM109.244 32.9917C112.651 32.9917 115.077 30.9267 115.077 28.1905V24.8349C114.664 25.2995 113.632 25.6093 112.031 25.919L108.469 26.6418C106.094 27.1064 105.062 28.1389 105.062 29.8425C105.062 31.9076 106.765 32.9917 109.244 32.9917Z" fill="currentColor"/>
    <path d="M82.3599 37.6893V11.1022H89.0198V15.129C90.104 12.1863 92.6853 10.5859 95.9378 10.5859H97.1253V17.607H96.0927C91.7044 17.607 89.3295 20.1367 89.3295 24.4732V37.6893H82.3599Z" fill="currentColor"/>
    <path d="M63.8313 37.685V8.20687H52.938V1.28906H82.1074V8.20687H71.1624V37.685H63.8313Z" fill="currentColor"/>
    <path d="M22.0166 1.16406V4.83301H22.0156V4.83594C22.0156 7.35808 21.8269 9.81385 21.4697 12.1738C21.0808 14.7452 20.4917 17.2032 19.7285 19.5078L19.3857 20.5C18.9609 21.6796 18.4867 22.8147 17.9727 23.9023C17.4877 24.9286 16.9672 25.9127 16.4092 26.8477C16.4085 26.8489 16.408 26.8503 16.4072 26.8516H16.4102C16.0016 27.5364 15.5739 28.1954 15.1289 28.8271L14.6777 29.4502C13.2966 31.3045 11.7581 32.9011 10.0967 34.1895H10.0908C9.20671 34.8747 8.28694 35.4735 7.33789 35.9766C5.04263 37.1932 2.57293 37.8545 0 37.8545V26.8477C0.051183 26.8477 0.102261 26.8445 0.15332 26.8438H0C2.6732 26.8438 5.17927 25.7718 7.33789 23.8984V23.9023L7.33887 23.9014V23.9004C8.52138 22.8747 9.59981 21.6086 10.5439 20.1465L10.9404 19.5078C10.9414 19.5062 10.9424 19.5046 10.9434 19.5029H10.9395C12.203 17.3857 13.1973 14.8987 13.8418 12.1641H13.8438C14.3838 9.87074 14.6768 7.4034 14.6768 4.83301V1.16406H22.0166Z" fill="currentColor"/>
    <path d="M26.6455 1.16406V4.83301H26.6465V4.83594C26.6465 7.35809 26.8352 9.81385 27.1924 12.1738C27.5813 14.7452 28.1705 17.2032 28.9336 19.5078C29.4431 21.045 30.0327 22.5128 30.6895 23.9023C31.1744 24.9286 31.6949 25.9127 32.2529 26.8477C32.2537 26.8489 32.2542 26.8503 32.2549 26.8516H32.252C32.7968 27.7646 33.3745 28.6325 33.9834 29.4502H33.9844C35.3655 31.3045 36.904 32.9011 38.5654 34.1895H38.5713C39.4553 34.8747 40.3743 35.4735 41.3232 35.9766C43.6187 37.1934 46.089 37.8545 48.6621 37.8545V26.8477C48.6109 26.8477 48.5598 26.8445 48.5088 26.8438H48.6621C45.9888 26.8438 43.4819 25.7719 41.3232 23.8984V23.9004C39.9718 22.7281 38.7562 21.2419 37.7217 19.5078C37.7207 19.5062 37.7197 19.5046 37.7188 19.5029H37.7227C36.4591 17.3857 35.4648 14.8987 34.8203 12.1641H34.8184C34.684 11.5934 34.565 11.012 34.4619 10.4209C34.1509 8.63733 33.9854 6.76573 33.9854 4.83594V4.89648C33.9853 4.87536 33.9844 4.85415 33.9844 4.83301V1.16406H26.6455Z" fill="currentColor"/>
</svg>
