<svg width="24" height="24" viewBox="0 0 24 24" fill="none" xmlns="http://www.w3.org/2000/svg">
<path d="M20 2C21.1 2 22 2.9 22 4V16C22 16.9273 21.3598 17.7099 20.5 17.9336V18H6L2 22V4C2 2.9 2.9 2 4 2H20ZM10.8096 12.25V14.25H12.8096V12.25H10.8096ZM12.0098 5.75C11.1098 5.75 10.4092 5.95 9.90918 6.25C9.30923 6.65 9.00938 7.25022 9.10938 7.9502H11.1094C11.1094 7.6502 11.2092 7.44961 11.4092 7.34961C11.6092 7.24962 11.8094 7.15039 12.1094 7.15039C12.4093 7.15041 12.7092 7.25022 12.9092 7.4502C13.1091 7.65018 13.209 7.85041 13.209 8.15039C13.2089 8.44992 13.1096 8.64986 13.0098 8.84961C12.8098 9.04958 12.6092 9.2496 12.4092 9.34961C11.9092 9.64961 11.5096 9.95039 11.3096 10.1504C10.9096 10.4504 10.8096 10.75 10.8096 11.25H12.8096C12.8096 10.95 12.9092 10.7498 12.9092 10.5498C13.0092 10.3499 13.2092 10.2498 13.4092 10.0498C13.9092 9.84981 14.2098 9.55038 14.5098 9.15039C14.8097 8.75046 14.9091 8.35013 14.9092 7.9502C14.9092 7.25022 14.6093 6.65 14.1094 6.25C13.7094 5.95005 12.9096 5.75007 12.0098 5.75Z" fill="black"/>
</svg>
