<svg width="24" height="24" viewBox="0 0 24 24" fill="none" xmlns="http://www.w3.org/2000/svg">
<path d="M17.5498 11.1981L17.5498 2.99985L6.4196 2.99985L6.41989 11.1977C6.41989 14.4748 8.47376 16.9126 11.8436 16.9126C15.2135 16.9126 17.5498 14.4753 17.5498 11.1981Z" stroke="black" stroke-width="2"/>
<path d="M6.41895 23C10.5927 23 11.984 17.3066 11.984 17.3066C11.984 17.3066 13.3751 23 17.549 23H6.41895Z" stroke="black" stroke-width="2" stroke-linecap="round" stroke-linejoin="bevel"/>
<path d="M17.9601 6.93066H19.9803C21.0961 6.93066 22.0005 7.97701 22.0005 9.26774C22.0005 10.5585 21.0961 11.6048 19.9803 11.6048H17.4551" stroke="black" stroke-width="2"/>
<path d="M6.5459 6.93066H4.27317C3.01798 6.93066 2.00045 7.97701 2.00045 9.26774C2.00045 10.5585 3.01798 11.6048 4.27317 11.6048H6.5459" stroke="black" stroke-width="2"/>
</svg>
